<svg width="15" height="14" viewBox="0 0 15 14" fill="none" xmlns="http://www.w3.org/2000/svg">
<g clip-path="url(#clip0_1236_2126)">
<path d="M6.87817 0.789355L4.29016 3.37737C3.89964 3.76789 3.89964 4.40106 4.29016 4.79158L9.7066 10.208C10.0971 10.5985 10.7303 10.5985 11.1208 10.208L13.7088 7.62001C14.0994 7.22948 14.0994 6.59632 13.7088 6.20579L8.29239 0.789355C7.90186 0.398831 7.2687 0.398831 6.87817 0.789355Z" stroke="#000001" stroke-linecap="round" stroke-linejoin="round"/>
<path d="M1.41 11.09C1.14478 11.3552 0.995787 11.7149 0.995787 12.09C0.995787 12.4651 1.14478 12.8248 1.41 13.09C1.67522 13.3552 2.03493 13.5042 2.41 13.5042C2.78507 13.5042 3.14478 13.3552 3.41 13.09L8 8.5L6 6.5L1.41 11.09Z" stroke="#000001" stroke-linecap="round" stroke-linejoin="round"/>
</g>
<defs>
<clipPath id="clip0_1236_2126">
<rect width="14" height="14" fill="white" transform="translate(0.5)"/>
</clipPath>
</defs>
</svg>
