<svg width="19" height="20" viewBox="0 0 19 20" fill="none" xmlns="http://www.w3.org/2000/svg">
<g clip-path="url(#clip0_1236_1837)">
<path d="M4.28365 9.95764L17.2371 11.5807" stroke="#000001" stroke-linecap="round" stroke-linejoin="round"/>
<path d="M4.82697 9.80499C5.97234 9.32303 6.51014 8.00382 6.02818 6.85845C5.54622 5.71309 4.22701 5.17528 3.08164 5.65724C1.93627 6.1392 1.39847 7.45841 1.88043 8.60378C2.36239 9.74915 3.6816 10.287 4.82697 9.80499Z" stroke="#000001" stroke-linecap="round" stroke-linejoin="round"/>
<path d="M5.88936 13.7735L13.7853 3.37733" stroke="#000001" stroke-linecap="round" stroke-linejoin="round"/>
<path d="M8.1237 17.6396C9.26907 17.1576 9.80687 15.8384 9.32491 14.693C8.84295 13.5477 7.52374 13.0099 6.37837 13.4918C5.233 13.9738 4.6952 15.293 5.17716 16.4384C5.65912 17.5837 6.97833 18.1215 8.1237 17.6396Z" stroke="#000001" stroke-linecap="round" stroke-linejoin="round"/>
</g>
<defs>
<clipPath id="clip0_1236_1837">
<rect width="14" height="14" fill="white" transform="translate(0.352982 6.26294) rotate(-22.8208)"/>
</clipPath>
</defs>
</svg>
