<svg width="16" height="16" viewBox="0 0 16 16" fill="none" xmlns="http://www.w3.org/2000/svg">
<path d="M9 0.5H6C5.44772 0.5 5 0.947715 5 1.5V2C5 2.55228 5.44772 3 6 3H9C9.55228 3 10 2.55228 10 2V1.5C10 0.947715 9.55228 0.5 9 0.5Z" stroke="#000001" stroke-linecap="round" stroke-linejoin="round"/>
<path d="M14.125 5H8.875C8.39175 5 8 5.40701 8 5.90909V14.0909C8 14.593 8.39175 15 8.875 15H14.125C14.6082 15 15 14.593 15 14.0909V5.90909C15 5.40701 14.6082 5 14.125 5Z" stroke="#000001" stroke-linecap="round" stroke-linejoin="round"/>
<path d="M10.0046 8.24988L13.046 8.25037" stroke="#000001" stroke-linecap="round" stroke-linejoin="round"/>
<path d="M9.97931 10.2498L13.0207 10.2502" stroke="#000001" stroke-linecap="round" stroke-linejoin="round"/>
<path d="M9.95404 12.2495L12.9954 12.25" stroke="#000001" stroke-linecap="round" stroke-linejoin="round"/>
<path d="M8 14H3.2C2.88174 14 2.57652 13.8946 2.35147 13.7071C2.12643 13.5196 2 13.2652 2 13V3C2 2.73478 2.12643 2.48043 2.35147 2.29289C2.57652 2.10536 2.88174 2 3.2 2H5" stroke="#000001" stroke-linecap="round" stroke-linejoin="round"/>
<path d="M10 2H11.8C12.1183 2 12.4235 2.10536 12.6485 2.29289C12.8736 2.48043 13 2.73478 13 3V5" stroke="#000001" stroke-linecap="round" stroke-linejoin="round"/>
</svg>
