<svg width="22" height="22" viewBox="0 0 22 22" fill="none" xmlns="http://www.w3.org/2000/svg">
<g clip-path="url(#clip0_1236_3793)" filter="url(#filter0_d_1236_3793)">
<path d="M17.5 12.5C17.5 12.7652 17.3946 13.0196 17.2071 13.2071C17.0196 13.3946 16.7652 13.5 16.5 13.5H5.5C5.23478 13.5 4.98043 13.3946 4.79289 13.2071C4.60536 13.0196 4.5 12.7652 4.5 12.5V3.5L7.5 0.5H16.5C16.7652 0.5 17.0196 0.605357 17.2071 0.792893C17.3946 0.98043 17.5 1.23478 17.5 1.5V12.5Z" stroke="#000001" stroke-linecap="round" stroke-linejoin="round"/>
<path d="M14.5 8.5H7.5V13.5H14.5V8.5Z" stroke="#000001" stroke-linecap="round" stroke-linejoin="round"/>
<path d="M14.5 0.5H8.5V4.5H14.5V0.5Z" stroke="#000001" stroke-linecap="round" stroke-linejoin="round"/>
</g>
<defs>
<filter id="filter0_d_1236_3793" x="0" y="0" width="22" height="22" filterUnits="userSpaceOnUse" color-interpolation-filters="sRGB">
<feFlood flood-opacity="0" result="BackgroundImageFix"/>
<feColorMatrix in="SourceAlpha" type="matrix" values="0 0 0 0 0 0 0 0 0 0 0 0 0 0 0 0 0 0 127 0" result="hardAlpha"/>
<feOffset dy="4"/>
<feGaussianBlur stdDeviation="2"/>
<feComposite in2="hardAlpha" operator="out"/>
<feColorMatrix type="matrix" values="0 0 0 0 0 0 0 0 0 0 0 0 0 0 0 0 0 0 0.25 0"/>
<feBlend mode="normal" in2="BackgroundImageFix" result="effect1_dropShadow_1236_3793"/>
<feBlend mode="normal" in="SourceGraphic" in2="effect1_dropShadow_1236_3793" result="shape"/>
</filter>
<clipPath id="clip0_1236_3793">
<rect width="14" height="14" fill="white" transform="translate(4)"/>
</clipPath>
</defs>
</svg>
